Coordinates																	
version=1																	
nRows=24																	
nColumns=18																	
inDegrees=yes																	
endheader																	
time	ground_thorax_rot_x	ground_thorax_rot_y	ground_thorax_rot_z	ground_thorax_tx	ground_thorax_ty	ground_thorax_tz	clav_prot	clav_elev	scapula_abduction	scapula_elevation	scapula_upward_rot	scapula_winging	plane_elv	shoulder_elv	axial_rot	elbow_flexion	pro_sup
11.16	1.494272	-5.32875141	-10.40406702	0	0	0	-22.91802498	-5.78859286	-12.9044737	-5.11417327	12.69106719	5.99575496	-26.43611225	12.83143987	40.40734654	0	34.32
11.17	1.57816709	-5.42281112	-10.39004305	0	0	0	-22.86164652	-5.6581704	-12.74979777	-5.05012957	12.8433745	5.90858217	-27.0416195	12.35356577	45.4215933	0	34.32
11.18	1.60971751	-5.44843383	-10.39826151	0	0	0	-22.85416614	-5.62361866	-12.70484716	-5.04141532	12.91342123	5.87933815	-27.01950146	12.35410533	45.33294349	0	34.32
11.19	1.60409611	-5.5423149	-10.37413291	0	0	0	-22.7987034	-5.61003989	-12.64117428	-5.01458122	12.86350299	5.88415151	-26.28442096	12.39505474	44.43342366	0	34.32
11.2	1.49845422	-5.45706065	-10.39835418	0	0	0	-22.82507115	-5.79525792	-12.79934542	-5.08773116	12.59219801	6.0183519	-25.46311586	13.00657063	39.01185995	0	34.32
11.21	1.4233713	-5.2926661	-10.3179412	0	0	0	-22.92455302	-5.82386226	-13.03387437	-5.08402637	12.47086445	6.06206806	-25.72710371	13.08076018	38.8086251	0	34.32
11.22	1.6067841	-5.35860976	-10.35177281	0	0	0	-22.92804911	-5.57276481	-12.83121013	-5.01273212	12.93614085	5.85794948	-26.65054177	12.5206749	42.12550749	0	34.32
11.23	1.56294964	-5.23014141	-10.33210368	0	0	0	-22.95766926	-5.57764623	-13.00225711	-4.9632874	12.72583663	5.9114288	-26.40199303	12.66920585	41.42987387	0	34.32
11.24	1.526344	-5.27800504	-10.34210768	0	0	0	-22.93773459	-5.5895255	-12.97027053	-4.96886977	12.71693433	5.91749714	-26.06807716	12.61259912	41.55073076	0	34.32
11.25	1.5784854	-5.22126604	-10.35111154	0	0	0	-22.99429271	-5.54602415	-13.02789045	-4.96162505	12.80402882	5.88235247	-26.73761181	12.25547829	45.42514936	0	34.32
11.26	1.38849064	-5.08800605	-10.39794492	0	0	0	-23.08357365	-5.80506636	-13.33535948	-5.06867677	12.43070143	6.07038181	-25.66097457	12.78787428	40.45770294	0	34.32
11.27	1.50694068	-5.20133822	-10.45308865	0	0	0	-23.0281781	-5.69216325	-13.18194196	-5.01711679	12.57816992	5.99140581	-25.11060919	12.76498418	39.77501696	0	34.32
11.28	1.56382076	-5.31838337	-10.49253936	0	0	0	-22.93459973	-5.656699	-12.94330601	-5.02299597	12.72689015	5.9393511	-25.31612314	12.74444607	40.59316214	0	34.32
11.29	1.60267179	-5.48979114	-10.38515325	0	0	0	-22.81920777	-5.49530484	-12.64119805	-4.95577288	12.97158286	5.81729571	-26.50641768	12.30375706	43.79481344	0	34.32
11.3	1.33513057	-5.57243767	-10.39583571	0	0	0	-22.63472715	-5.83675675	-12.51985807	-5.08162765	12.49061556	6.05050246	-25.57556765	13.1265754	37.23945139	0	34.32
11.31	1.40183431	-5.53984308	-10.41100878	0	0	0	-22.64984495	-5.8162374	-12.54011752	-5.07136335	12.50861262	6.03912793	-25.5579046	13.10149962	37.27332852	0	34.32
11.32	1.6345285	-5.35488846	-10.36536391	0	0	0	-22.88567595	-5.46970446	-12.73829526	-4.95083353	13.01256132	5.80044747	-27.54912517	11.90949369	47.73425372	0	34.32
11.33	1.4968943	-5.24719121	-10.44239882	0	0	0	-22.92530698	-5.72629967	-13.02770557	-5.02274292	12.52366856	6.01372145	-25.1586415	12.83269083	39.10047419	0	34.32
11.34	1.47505431	-5.17903514	-10.3901676	0	0	0	-22.93582065	-5.7045154	-12.99149928	-5.03375795	12.62708794	5.98076537	-26.16744273	12.66008769	40.37641669	0	34.32
11.35	1.47664656	-5.15476498	-10.37541264	0	0	0	-22.93149743	-5.71131534	-12.97637374	-5.04151847	12.63778935	5.98078953	-26.15939902	12.6599614	40.3860546	0	34.32
11.36	1.52885912	-5.23836787	-10.35671158	0	0	0	-22.85557366	-5.64838616	-12.77720242	-5.026228	12.78203335	5.92005296	-26.58204865	12.47548269	41.83741524	0	34.32
11.37	1.49021569	-5.19512307	-10.3960723	0	0	0	-22.88383409	-5.74976011	-12.85453977	-5.08220494	12.69111939	5.98019193	-26.17562305	12.49919807	41.19213585	0	34.32
11.38	1.32146047	-5.25266474	-10.34288548	0	0	0	-22.68210223	-5.95494256	-12.64152829	-5.14428582	12.37211369	6.12457218	-26.1550152	12.66223247	41.23404788	0	34.32
11.39	1.36625144	-5.19645864	-10.30723547	0	0	0	-22.68705632	-5.95560147	-12.64304488	-5.1484902	12.38470848	6.12203949	-26.14184036	12.63308289	41.24297114	0	34.32
